<mxfile host="app.diagrams.net" modified="2020-07-10T11:53:16.939Z" agent="5.0 (Windows NT 10.0; Win64; x64) AppleWebKit/537.36 (KHTML, like Gecko) Chrome/83.0.4103.116 Safari/537.36" etag="qutj4OYy5YjpNIzwc17a" version="13.4.1" type="github">
  <diagram id="O3S649ovpkczzVdYJCG4" name="Page-1">
    <mxGraphModel dx="1422" dy="713" grid="1" gridSize="10" guides="1" tooltips="1" connect="1" arrows="1" fold="1" page="1" pageScale="1" pageWidth="827" pageHeight="1169" math="0" shadow="0">
      <root>
        <mxCell id="0" />
        <mxCell id="1" parent="0" />
        <mxCell id="DBfQeAOvzvbpSl6Dyq75-11" value="" style="group" vertex="1" connectable="0" parent="1">
          <mxGeometry x="240" y="40" width="160" height="266" as="geometry" />
        </mxCell>
        <mxCell id="DBfQeAOvzvbpSl6Dyq75-3" value="" style="shape=image;html=1;verticalAlign=top;verticalLabelPosition=bottom;labelBackgroundColor=#ffffff;imageAspect=0;aspect=fixed;image=https://cdn4.iconfinder.com/data/icons/logos-and-brands/512/21_Angular_logo_logos-128.png" vertex="1" parent="DBfQeAOvzvbpSl6Dyq75-11">
          <mxGeometry y="41.74887892376682" width="69.07857282121272" height="69.07857282121272" as="geometry" />
        </mxCell>
        <mxCell id="DBfQeAOvzvbpSl6Dyq75-4" value="" style="shape=image;html=1;verticalAlign=top;verticalLabelPosition=bottom;labelBackgroundColor=#ffffff;imageAspect=0;aspect=fixed;image=https://cdn4.iconfinder.com/data/icons/logos-brands-5/24/vue-dot-js-128.png" vertex="1" parent="DBfQeAOvzvbpSl6Dyq75-11">
          <mxGeometry x="83.33333333333333" y="41.74887892376682" width="69.07857282121272" height="69.07857282121272" as="geometry" />
        </mxCell>
        <mxCell id="DBfQeAOvzvbpSl6Dyq75-5" value="" style="shape=image;html=1;verticalAlign=top;verticalLabelPosition=bottom;labelBackgroundColor=#ffffff;imageAspect=0;aspect=fixed;image=https://cdn4.iconfinder.com/data/icons/logos-and-brands/512/111_Ember_logo_logos-128.png" vertex="1" parent="DBfQeAOvzvbpSl6Dyq75-11">
          <mxGeometry y="113.31838565022422" width="69.07857282121272" height="69.07857282121272" as="geometry" />
        </mxCell>
        <mxCell id="DBfQeAOvzvbpSl6Dyq75-7" value="" style="shape=image;html=1;verticalAlign=top;verticalLabelPosition=bottom;labelBackgroundColor=#ffffff;imageAspect=0;aspect=fixed;image=https://cdn4.iconfinder.com/data/icons/logos-3/600/React.js_logo-128.png" vertex="1" parent="DBfQeAOvzvbpSl6Dyq75-11">
          <mxGeometry x="88.88888888888889" y="118.08968609865471" width="69.07857282121272" height="69.07857282121272" as="geometry" />
        </mxCell>
        <mxCell id="DBfQeAOvzvbpSl6Dyq75-8" value="" style="shape=image;html=1;verticalAlign=top;verticalLabelPosition=bottom;labelBackgroundColor=#ffffff;imageAspect=0;aspect=fixed;image=https://cdn4.iconfinder.com/data/icons/ionicons/512/icon-ionic-128.png" vertex="1" parent="DBfQeAOvzvbpSl6Dyq75-11">
          <mxGeometry x="38.888888888888886" y="189.65919282511211" width="69.07857282121272" height="69.07857282121272" as="geometry" />
        </mxCell>
        <mxCell id="DBfQeAOvzvbpSl6Dyq75-10" value="&lt;font style=&quot;font-size: 20px&quot;&gt;&lt;b&gt;Frontend&lt;/b&gt;&lt;/font&gt;" style="text;html=1;strokeColor=none;fillColor=none;align=center;verticalAlign=middle;whiteSpace=wrap;rounded=0;" vertex="1" parent="DBfQeAOvzvbpSl6Dyq75-11">
          <mxGeometry x="45" width="58.88888888888889" height="11.928251121076233" as="geometry" />
        </mxCell>
        <mxCell id="DBfQeAOvzvbpSl6Dyq75-13" value="" style="group" vertex="1" connectable="0" parent="1">
          <mxGeometry x="490" y="40" width="220" height="198" as="geometry" />
        </mxCell>
        <mxCell id="DBfQeAOvzvbpSl6Dyq75-1" value="" style="shape=image;html=1;verticalAlign=top;verticalLabelPosition=bottom;labelBackgroundColor=#ffffff;imageAspect=0;aspect=fixed;image=https://cdn4.iconfinder.com/data/icons/logos-brands-5/24/graphql-128.png" vertex="1" parent="DBfQeAOvzvbpSl6Dyq75-13">
          <mxGeometry y="70" width="90" height="90" as="geometry" />
        </mxCell>
        <mxCell id="DBfQeAOvzvbpSl6Dyq75-9" value="&lt;font style=&quot;font-size: 20px&quot;&gt;&lt;b&gt;Backend&lt;/b&gt;&lt;/font&gt;" style="text;html=1;strokeColor=none;fillColor=none;align=center;verticalAlign=middle;whiteSpace=wrap;rounded=0;" vertex="1" parent="DBfQeAOvzvbpSl6Dyq75-13">
          <mxGeometry x="68.75" width="91.09375000000001" height="20" as="geometry" />
        </mxCell>
        <mxCell id="DBfQeAOvzvbpSl6Dyq75-12" value="&lt;font size=&quot;1&quot;&gt;&lt;b style=&quot;font-size: 40px&quot;&gt;REST&lt;/b&gt;&lt;/font&gt;" style="text;html=1;strokeColor=none;fillColor=none;align=center;verticalAlign=middle;whiteSpace=wrap;rounded=0;" vertex="1" parent="DBfQeAOvzvbpSl6Dyq75-13">
          <mxGeometry x="109.99625" y="100" width="91.09375000000001" height="20" as="geometry" />
        </mxCell>
      </root>
    </mxGraphModel>
  </diagram>
</mxfile>
